<svg width="107" height="102" viewBox="0 0 107 102" fill="none" xmlns="http://www.w3.org/2000/svg">
<g id="Frame" opacity="0.15" clip-path="url(#clip0_76_228)">
<g id="Group">
<path id="Vector" d="M106.837 51.6826C104.993 29.9246 89.4048 10.612 67.9474 3.09816C56.0973 -1.04451 42.8267 -1.18695 31.1884 3.60858C20.6965 7.9293 12.2481 16.0247 8.07379 26.1499C4.85893 31.7526 2.50386 37.7827 1.23287 44.0857C-1.02252 55.2555 -0.573935 67.6004 5.80594 77.5239C18.1794 96.7535 44.2223 105.62 66.8509 100.623C78.2524 98.1067 89.3549 92.1716 96.8687 83.5301C104.569 74.675 107.797 63.0779 106.837 51.6826ZM96.0712 74.2358C91.1119 82.8417 82.1402 89.2397 72.6451 92.7414C53.0569 99.9584 30.3784 95.1985 16.0113 80.5151C2.54124 66.7577 4.18605 46.0918 12.9833 29.9721C13.1951 29.711 13.382 29.4261 13.5067 29.07C13.5316 29.0106 13.5565 28.9513 13.5814 28.8919C15.7994 25.0223 18.4286 21.4256 21.3694 18.2919C21.9425 17.6747 22.1793 16.9981 22.1793 16.3334C31.8114 7.53759 46.4777 4.08338 59.8106 6.97969C79.6231 11.2886 95.2987 26.8384 99.6599 45.6644C101.853 55.1249 101.018 65.6419 96.0712 74.2358Z" fill="#CBBDAD"/>
<path id="Vector_2" d="M71.412 23.7403C58.5027 15.7992 40.2228 14.1255 28.1858 23.6454C27.4756 23.7997 26.8027 24.1677 26.2793 24.8443C25.8432 25.4259 25.4195 26.0075 25.0083 26.601C24.6221 27.0165 24.2233 27.3963 23.862 27.8355C23.4632 28.3103 23.2638 28.8208 23.1891 29.3312C16.1363 40.7146 13.1707 54.5671 18.616 67.1613C21.4695 73.7729 26.3666 79.5062 33.0081 82.9604C40.2104 86.7114 48.8955 88.0289 57.0323 87.5779C72.3964 86.7232 85.9162 76.9779 89.3928 62.3895C93.0437 47.0177 84.9443 32.0613 71.412 23.7403ZM83.9848 56.8343C83.1873 68.9655 73.4181 79.1145 60.945 81.2274C47.774 83.4708 32.6094 79.5893 25.8307 67.921C18.7032 55.6235 22.3542 41.32 29.9802 30.1265C38.8272 21.4375 52.8954 21.2001 64.0228 26.518C76.1844 32.3581 84.8571 43.5041 83.9848 56.8343Z" fill="#CBBDAD"/>
<path id="Vector_3" d="M65.2067 49.0237C63.8236 46.5547 61.3938 44.4537 58.9016 43.0174C56.0108 41.3556 52.4719 40.5485 49.1574 41.415C47.363 41.8779 45.7805 42.7919 44.5345 44.0264C41.8429 44.8098 40.6716 47.7299 39.7495 50.1633C38.653 53.0714 38.0175 56.1221 38.5658 59.1964C39.0517 61.9028 40.6093 64.4311 42.9893 65.998C45.6684 67.7548 49.1823 67.921 52.2975 67.4936C58.1166 66.7102 63.4996 63.0423 65.6927 57.7839C66.9139 54.9113 66.7394 51.7657 65.2067 49.0237ZM60.2474 54.6264C59.7988 56.3713 58.9639 57.6296 57.4936 58.9234C56.3597 59.9205 54.7647 60.787 53.3192 61.2262C51.5124 61.7722 49.8552 62.0334 48.0857 61.6535C47.7493 61.5823 47.1886 61.4399 47.0141 61.3687C46.8023 61.2737 46.6154 61.155 46.4036 61.0482C45.8677 60.7514 46.1917 60.8938 46.2914 60.9769C46.1419 60.8464 46.0048 60.7039 45.8553 60.5734C45.793 60.5259 45.7681 60.4903 45.7307 60.4665C45.7182 60.4428 45.7058 60.419 45.6684 60.3716C45.4316 60.0392 45.2073 59.6712 45.0329 59.3033C44.9955 59.2083 44.9207 58.9946 44.8958 58.9353C44.821 58.6979 44.7463 58.4486 44.684 58.2112C44.6466 58.0688 44.6217 57.9263 44.5968 57.7839C44.5968 57.7127 44.5594 57.2853 44.5594 57.2141C44.522 56.039 44.6964 55.0894 45.008 53.938C45.2696 53.0002 45.6061 52.0981 45.9674 51.196C47.0515 50.9586 47.9736 50.1751 48.3225 49.1068C48.3599 49.0119 48.3723 48.9762 48.3848 48.9288C48.472 48.7507 48.5842 48.5845 48.6963 48.4183C48.7088 48.3946 48.7088 48.3946 48.7212 48.3827C48.7337 48.3709 48.7337 48.3827 48.7586 48.359C48.8957 48.2166 49.0328 48.086 49.1698 47.9554C49.2197 47.9079 49.2446 47.8842 49.2571 47.8604C49.2944 47.8367 49.3194 47.8248 49.3692 47.8011C49.5436 47.6943 49.7056 47.5993 49.8801 47.5043C50.0047 47.4331 50.1418 47.3738 50.2788 47.3144C50.3287 47.3144 50.7523 47.172 50.8271 47.1482C51.0265 47.1008 51.2258 47.0533 51.4252 47.0177C51.2881 47.0414 50.8769 47.0295 51.5 47.0177C51.8987 47.0058 52.3099 46.9939 52.7211 47.0414C52.8084 47.0533 52.9828 47.0889 52.9953 47.0889C53.2196 47.1364 53.4438 47.1839 53.6681 47.2432C54.2787 47.4094 54.5279 47.5043 54.8644 47.6705C55.3254 47.9079 55.7865 48.1453 56.235 48.4183C56.5839 48.632 56.8955 48.8575 57.0201 48.9525C57.4188 49.2611 57.8051 49.5935 58.1789 49.9377C58.3409 50.092 58.5029 50.2463 58.6524 50.4007C58.6898 50.4363 59.0013 50.7805 59.0761 50.8517C59.3378 51.1722 59.5745 51.5283 59.7739 51.8726C60.0356 52.3236 60.0356 52.288 60.1228 52.6322C60.2972 53.2851 60.3845 54.0923 60.2474 54.6264Z" fill="#CBBDAD"/>
</g>
</g>
<defs>
<clipPath id="clip0_76_228">
<rect width="107" height="102" fill="white"/>
</clipPath>
</defs>
</svg>
